<?xml version="1.0" encoding="utf-8"?>
<!-- Generator: Adobe Illustrator 17.0.0, SVG Export Plug-In . SVG Version: 6.00 Build 0)  -->
<!DOCTYPE svg PUBLIC "-//W3C//DTD SVG 1.1//EN" "http://www.w3.org/Graphics/SVG/1.1/DTD/svg11.dtd">
<svg version="1.1" id="Layer_1" xmlns="http://www.w3.org/2000/svg" xmlns:xlink="http://www.w3.org/1999/xlink" x="0px" y="0px"
	 width="68px" height="68px" viewBox="0 0 68 68" enable-background="new 0 0 68 68" xml:space="preserve">
<g>
	<circle fill="#5C976F" cx="34" cy="34" r="34"/>
	<g>
		<path fill="#FFFFFF" d="M53.504,23.2c0,1.763-1.429,3.191-3.191,3.191H17.688c-1.763,0-3.191-1.429-3.191-3.191l0,0
			c0-1.763,1.429-3.191,3.191-3.191h32.624C52.075,20.009,53.504,21.438,53.504,23.2L53.504,23.2z"/>
		<path fill="#FFFFFF" d="M53.504,34c0,1.763-1.429,3.191-3.191,3.191H17.688c-1.763,0-3.191-1.429-3.191-3.191l0,0
			c0-1.763,1.429-3.191,3.191-3.191h32.624C52.075,30.809,53.504,32.237,53.504,34L53.504,34z"/>
		<path fill="#FFFFFF" d="M53.504,44.8c0,1.763-1.429,3.191-3.191,3.191H17.688c-1.763,0-3.191-1.429-3.191-3.191l0,0
			c0-1.763,1.429-3.191,3.191-3.191h32.624C52.075,41.608,53.504,43.037,53.504,44.8L53.504,44.8z"/>
	</g>
</g>
</svg>
